# xmcd
#
# Track frame offsets: 
#        150
#        23820
#        56396
#        88407
#        133172
#        163320
#        219443
#        253807
#
# Disc length: 3692 seconds
#
# Revision: 6
# Processed by: cddbd v1.5.2PL0 Copyright (c) Steve Scherf et al.
# Submitted via: ExactAudioCopy v0.99pb5
#
DISCID=740e6a08
DTITLE=John Mclaughlin - Industrial Zen
DYEAR=2006
DGENRE=Jazz
TTITLE0=For Jaco
TTITLE1=New Blues Old Bruise
TTITLE2=Wayne's Way
TTITLE3=Just So Only More So
TTITLE4=To Bop or not to Be (For Michael Brecker)
TTITLE5=Dear Dalai Lama
TTITLE6=Senor C.S.
TTITLE7=Mother Nature
EXTD=YEAR: 2006
EXTT0=
EXTT1=
EXTT2=
EXTT3=
EXTT4=
EXTT5=
EXTT6=
EXTT7=
PLAYORDER=
